<?xml version="1.0" encoding="iso-8859-1"?>
<!-- Generator: Adobe Illustrator 19.0.0, SVG Export Plug-In . SVG Version: 6.00 Build 0)  -->
<svg version="1.1" id="Capa_1" xmlns="http://www.w3.org/2000/svg" xmlns:xlink="http://www.w3.org/1999/xlink" x="0px" y="0px"
	 viewBox="0 0 512.001 512.001" style="enable-background:new 0 0 512.001 512.001;" xml:space="preserve">
<g>
	<path style="fill:#FFCD43;" d="M461.215,226.266c-3.45,0-6.595-2.324-7.489-5.821c-8.337-32.603-30.385-55.666-65.531-68.549
		c-26.778-9.815-51.108-9.73-51.35-9.728c-0.021,0.001-0.042,0.001-0.063,0.001c-4.243,0.001-7.699-3.422-7.734-7.672
		c-0.034-4.271,3.4-7.762,7.672-7.797c1.1-0.012,27.423-0.096,56.799,10.672c39.652,14.535,65.654,41.936,75.194,79.241
		c1.057,4.138-1.439,8.351-5.577,9.409C462.494,226.187,461.849,226.266,461.215,226.266z"/>
	<path style="fill:#FFCD43;" d="M344.253,142.561c-3.314,0-6.38-2.148-7.396-5.484c-1.244-4.086,1.059-8.408,5.146-9.652
		c2.175-0.662,53.806-16.146,100.997-9.806c4.234,0.569,7.205,4.462,6.637,8.695c-0.568,4.234-4.475,7.207-8.695,6.636
		c-43.887-5.894-93.932,9.121-94.433,9.273C345.759,142.452,345,142.561,344.253,142.561z"/>
</g>
<path style="fill:#AC7762;" d="M468.495,371.635c-32.219-120.73-126.945-236.81-126.945-236.81h-91.916h-91.916
	c0,0-94.726,116.08-126.945,236.81c-13.556,50.795,16.687,102.917,71.48,121.378c33.481,11.28,80.73,19.286,147.381,18.979
	c66.652,0.307,113.9-7.699,147.381-18.979C451.808,474.552,482.051,422.43,468.495,371.635z"/>
<path style="fill:#A06955;" d="M397.014,493.01c-32.434,10.932-77.779,18.78-141.172,18.986
	c45.748-2.764,80.667-9.777,107.316-18.759c57.803-19.471,89.711-74.459,75.407-128.044
	c-25.854-96.869-88.938-190.89-118.103-230.367l21.09-0.001c0,0,94.724,116.081,126.941,236.814
	C482.054,422.429,451.807,474.55,397.014,493.01z"/>
<rect x="157.069" y="84.972" style="fill:#FFCD43;" width="185.13" height="49.853"/>
<rect x="320.459" y="84.972" style="fill:#FFAF45;" width="21.738" height="49.853"/>
<path style="fill:#AC7762;" d="M367.549,17.208c1.487-3.974-0.517-8.441-4.505-9.891c-10.091-3.67-22.249-2.341-32.909-0.062
	c-9.055,1.937-18.23,4.554-27.383,5.216h-8.067c-1.515-0.119-3.029-0.304-4.539-0.586c-13.921-2.598-26.557-12.446-40.512-11.86
	c-13.954-0.586-26.59,9.262-40.511,11.86c-1.511,0.282-3.024,0.466-4.539,0.586h-8.067c-9.153-0.662-18.328-3.279-27.383-5.216
	c-10.696-2.288-22.825-3.203-32.907,0.673c-3.924,1.508-5.875,5.927-4.397,9.862l25.238,67.183h92.566H342.2L367.549,17.208z"/>
<path style="fill:#A06955;" d="M367.551,17.206l-25.349,67.766h-21.74l29.35-78.47c0.175-0.474,0.309-0.959,0.402-1.444
	c4.455,0.124,8.807,0.794,12.829,2.259C367.035,8.77,369.036,13.236,367.551,17.206z"/>
<circle style="fill:#FFCD43;" cx="466.399" cy="237.82" r="18.05"/>
<path style="fill:#FFAF45;" d="M484.448,237.821c0,9.968-8.08,18.048-18.048,18.048c-8.583,0-15.765-5.989-17.599-14.016
	c3.192,2.856,7.406,4.594,12.027,4.594c9.968,0,18.048-8.08,18.048-18.048c0-1.385-0.155-2.738-0.449-4.032
	C482.121,227.671,484.448,232.473,484.448,237.821z"/>
<circle style="fill:#FFCD43;" cx="460.009" cy="125.28" r="18.05"/>
<path style="fill:#FFAF45;" d="M478.063,125.284c0,9.968-8.08,18.048-18.048,18.048c-8.583,0-15.765-5.989-17.599-14.016
	c3.192,2.856,7.406,4.594,12.027,4.594c9.968,0,18.048-8.08,18.048-18.048c0-1.385-0.155-2.738-0.449-4.032
	C475.737,115.134,478.063,119.937,478.063,125.284z"/>
<g>
</g>
<g>
</g>
<g>
</g>
<g>
</g>
<g>
</g>
<g>
</g>
<g>
</g>
<g>
</g>
<g>
</g>
<g>
</g>
<g>
</g>
<g>
</g>
<g>
</g>
<g>
</g>
<g>
</g>
</svg>
