<svg height="436pt" viewBox="-6 0 436 436.90667" width="436pt" xmlns="http://www.w3.org/2000/svg"><path d="m382.75 129.707031c0 49.011719-39.734375 88.746094-88.75 88.746094-49.011719 0-88.746094-39.734375-88.746094-88.746094 0-49.015625 39.734375-88.746093 88.746094-88.746093 49.015625 0 88.75 39.730468 88.75 88.746093zm0 0" fill="#fff35f"/><path d="m382.75 129.707031h6.824219c-.003907-52.789062-42.785157-95.570312-95.574219-95.574219-52.785156.003907-95.566406 42.785157-95.570312 95.574219.003906 52.785157 42.785156 95.566407 95.570312 95.570313 52.785156-.003906 95.570312-42.785156 95.574219-95.570313h-13.652344c-.003906 22.640625-9.160156 43.074219-23.996094 57.921875-14.84375 14.839844-35.28125 23.992188-57.925781 23.996094-22.640625-.003906-43.078125-9.15625-57.925781-23.996094-14.835938-14.847656-23.988281-35.28125-23.992188-57.921875.003907-22.644531 9.15625-43.078125 23.992188-57.925781 14.847656-14.835938 35.285156-23.992188 57.925781-23.996094 22.644531.003906 43.082031 9.15625 57.925781 23.996094 14.835938 14.847656 23.992188 35.28125 23.996094 57.925781zm0 0" fill="#54596e"/><path d="m261.425781 163.5c7.429688 8.039062 19.289063 12.511719 32.550781 12.570312 13.128907-.054687 24.882813-4.441406 32.332032-12.332031 2.566406-2.761719 2.410156-7.078125-.351563-9.644531s-7.078125-2.410156-9.644531.351562c-3.886719 4.296876-12.375 8.027344-22.335938 7.976563-10.058593.054687-18.613281-3.765625-22.449218-8.113281-2.539063-2.789063-6.859375-2.992188-9.648438-.453125-2.789062 2.535156-2.992187 6.859375-.453125 9.648437zm0 0" fill="#54596e"/><path d="m253.042969 129.707031c0 7.539063-6.113281 13.652344-13.65625 13.652344-7.539063 0-13.652344-6.113281-13.652344-13.652344 0-7.539062 6.113281-13.652343 13.652344-13.652343 7.542969 0 13.65625 6.113281 13.65625 13.652343zm0 0" fill="#ffd578"/><path d="m362.269531 129.707031c0 7.539063-6.113281 13.652344-13.65625 13.652344-7.539062 0-13.652343-6.113281-13.652343-13.652344 0-7.539062 6.113281-13.652343 13.652343-13.652343 7.542969 0 13.65625 6.113281 13.65625 13.652343zm0 0" fill="#ffd578"/><path d="m348.613281 105.8125c0 5.65625-4.582031 10.242188-10.238281 10.242188s-10.238281-4.585938-10.238281-10.242188 4.582031-10.238281 10.238281-10.238281 10.238281 4.582031 10.238281 10.238281zm0 0" fill="#54596e"/><path d="m259.867188 105.8125c0 5.65625-4.582032 10.242188-10.238282 10.242188s-10.242187-4.585938-10.242187-10.242188 4.585937-10.238281 10.242187-10.238281 10.238282 4.582031 10.238282 10.238281zm0 0" fill="#54596e"/><g fill="#ffd578"><path d="m287.175781 6.828125v13.652344c0 3.769531 3.054688 6.828125 6.824219 6.828125 3.773438 0 6.828125-3.058594 6.828125-6.828125v-13.652344c0-3.773437-3.054687-6.828125-6.828125-6.828125-3.769531 0-6.824219 3.054688-6.824219 6.828125"/><path d="m171.121094 136.535156h13.652344c3.773437 0 6.828124-3.058594 6.828124-6.828125 0-3.773437-3.054687-6.828125-6.828124-6.828125h-13.652344c-3.769532 0-6.828125 3.054688-6.828125 6.828125 0 3.769531 3.058593 6.828125 6.828125 6.828125"/><path d="m403.226562 136.535156h13.65625c3.769532 0 6.824219-3.058594 6.824219-6.828125 0-3.773437-3.054687-6.828125-6.824219-6.828125h-13.65625c-3.769531 0-6.824218 3.054688-6.824218 6.828125 0 3.769531 3.054687 6.828125 6.824218 6.828125"/><path d="m376.0625 37.992188-9.652344 9.652343c-2.667968 2.664063-2.667968 6.988281 0 9.65625 2.664063 2.664063 6.988282 2.664063 9.652344 0l9.652344-9.652343c2.667968-2.667969 2.667968-6.992188 0-9.65625-2.667969-2.664063-6.988282-2.664063-9.652344 0"/><path d="m211.941406 202.109375-9.652344 9.652344c-2.667968 2.667969-2.667968 6.992187 0 9.65625 2.664063 2.664062 6.988282 2.664062 9.652344 0l9.65625-9.652344c2.664063-2.664063 2.664063-6.988281 0-9.65625-2.667968-2.664063-6.988281-2.664063-9.65625 0"/><path d="m202.285156 47.648438 9.65625 9.652343c2.664063 2.664063 6.988282 2.664063 9.652344 0 2.667969-2.667969 2.667969-6.992187 0-9.65625l-9.652344-9.652343c-2.664062-2.664063-6.988281-2.664063-9.65625 0-2.664062 2.664062-2.664062 6.988281 0 9.65625"/><path d="m366.40625 211.765625 9.652344 9.652344c2.667968 2.664062 6.988281 2.664062 9.65625 0 2.664062-2.664063 2.664062-6.988281 0-9.65625l-9.652344-9.652344c-2.667969-2.664063-6.988281-2.664063-9.65625 0-2.664062 2.667969-2.664062 6.992187 0 9.65625"/></g><path d="m328.136719 389.121094h-320.855469l27.308594-150.1875h266.238281zm0 0" fill="#55a6ff"/><path d="m328.136719 389.121094v-6.828125h-312.675781l24.824218-136.539063h254.847656l26.285157 144.585938 6.71875-1.21875v-6.828125 6.828125l6.714843-1.226563-27.308593-150.183593c-.589844-3.246094-3.417969-5.605469-6.714844-5.605469h-266.238281c-3.300782 0-6.125 2.359375-6.71875 5.605469l-27.308594 150.183593c-.363281 1.992188.179688 4.042969 1.476562 5.597657 1.296876 1.554687 3.21875 2.449218 5.242188 2.449218h320.855469c2.023437 0 3.941406-.894531 5.238281-2.449218 1.296875-1.554688 1.839844-3.605469 1.476562-5.597657zm0 0" fill="#54596e"/><path d="m225.734375 389.121094h-116.054687l9.882812-150.1875h96.292969zm0 0" fill="#55a6ff"/><path d="m225.734375 389.121094v-6.828125h-108.761719l8.980469-136.535157h83.507813l9.460937 143.808594 6.8125-.445312v-6.828125 6.828125l6.8125-.453125-9.878906-150.183594c-.238281-3.601563-3.207031-6.378906-6.8125-6.378906h-96.292969c-3.605469 0-6.574219 2.777343-6.8125 6.378906l-9.878906 150.183594c-.125 1.898437.53125 3.730469 1.828125 5.113281 1.300781 1.390625 3.082031 2.160156 4.984375 2.160156h116.054687c1.898438 0 3.679688-.769531 4.980469-2.160156 1.296875-1.382812 1.953125-3.21875 1.828125-5.113281zm0 0" fill="#54596e"/><path d="m150.640625 389.121094h34.132813v40.957031h-34.132813zm0 0" fill="#8065c4"/><path d="m184.773438 389.121094v-6.828125h-34.132813c-1.796875 0-3.554687.726562-4.828125 1.996093-1.269531 1.273438-1.996094 3.03125-1.996094 4.832032v40.957031c0 1.824219.707032 3.539063 2 4.828125 1.289063 1.289062 3.003906 1.996094 4.824219 1.996094h34.132813c1.824218 0 3.539062-.707032 4.828124-1.996094 1.289063-1.289062 2-3.003906 2-4.828125v-40.957031c0-1.800782-.730468-3.558594-2-4.832032-1.269531-1.269531-3.027343-1.996093-4.824218-1.996093v6.828125h-6.828125v34.128906h-20.480469v-27.308594h27.308594v-6.820312h-6.828125zm0 0" fill="#54596e"/><path d="m123.335938 436.90625h88.746093c3.769531 0 6.828125-3.054688 6.828125-6.828125s-3.058594-6.824219-6.828125-6.824219h-88.746093c-3.769532 0-6.828126 3.050782-6.828126 6.824219s3.058594 6.828125 6.828126 6.828125" fill="#54596e"/><path d="m23.808594 314.027344h287.800781c3.695313 0 6.691406-3.058594 6.691406-6.828125 0-3.773438-2.996093-6.824219-6.691406-6.824219h-287.800781c-3.699219 0-6.695313 3.050781-6.695313 6.824219.003907 3.769531 2.996094 6.828125 6.695313 6.828125" fill="#54596e"/><path d="m55.066406 266.238281h13.65625c3.769532 0 6.824219-3.054687 6.824219-6.824219 0-3.773437-3.054687-6.828124-6.824219-6.828124h-13.65625c-3.769531 0-6.824218 3.054687-6.824218 6.828124 0 3.769532 3.054687 6.824219 6.824218 6.824219" fill="#fff"/><path d="m41.414062 334.507812h13.652344c3.773438 0 6.828125-3.058593 6.828125-6.828124 0-3.773438-3.054687-6.828126-6.828125-6.828126h-13.652344c-3.769531 0-6.824218 3.054688-6.824218 6.828126 0 3.769531 3.054687 6.828124 6.824218 6.828124" fill="#fff"/><path d="m253.042969 252.585938h-13.65625c-3.769531 0-6.824219 3.054687-6.824219 6.828124 0 3.769532 3.054688 6.824219 6.824219 6.824219h13.65625c3.769531 0 6.824219-3.054687 6.824219-6.824219 0-3.773437-3.054688-6.828124-6.824219-6.828124" fill="#fff"/><path d="m157.46875 252.585938h-13.652344c-3.773437 0-6.828125 3.054687-6.828125 6.828124 0 3.769532 3.054688 6.824219 6.828125 6.824219h13.652344c3.769531 0 6.824219-3.054687 6.824219-6.824219 0-3.773437-3.054688-6.828124-6.824219-6.828124" fill="#fff"/><path d="m150.640625 320.851562h-13.652344c-3.769531 0-6.828125 3.054688-6.828125 6.828126 0 3.769531 3.058594 6.828124 6.828125 6.828124h13.652344c3.769531 0 6.828125-3.058593 6.828125-6.828124 0-3.773438-3.058594-6.828126-6.828125-6.828126" fill="#fff"/><path d="m259.867188 320.851562h-13.652344c-3.769532 0-6.828125 3.054688-6.828125 6.828126 0 3.769531 3.058593 6.828124 6.828125 6.828124h13.652344c3.769531 0 6.828124-3.058593 6.828124-6.828124 0-3.773438-3.058593-6.828126-6.828124-6.828126" fill="#fff"/></svg>